0.
0.1 testffmpeg视频播放器项目开发记录
	0.1.1 Build command failed.
		...
		../../../../include\libavutil/error.h:111: error: undefined reference to 'av_strerror'
		
		此处保存下部分异常日志。
		原因是没有引用某一个ffmpeg模块。
		完整日志可以通过，故意不引用某一个ffmpeg模块来查看。

4. 
	4.4 	
		flv 或h264格式的视频没有头部信息。
		就无法获得总的时长。Number of elements in AVFormatContext.streams = 0;
		
		需要调用：avformat_find_stream_info才可以获取头信息，如时长
		
		4.4.2 av_seek_frame(ic,videoStream,pos,AVSEEK_FLAG_BACKWARD|AVSEEK_FLAG_FRAME )
			pos 如何设置。根据总时长吗？(AVFormatContext)ic->duration 
5. 
	5.7 ffmpeg调用MediaCodec实现硬解码
		android中硬解码部分没有实现c++接口只实现了java接口，需要c++调用java接口。
		
		h264_mediacodec
		 avcodec_open2 for video failed!:Invalid argument
		 
		 5.7.1 ffmpeg android jni端调用mediaCodec实现硬解码
			https://blog.csdn.net/zhangpengzp/article/details/88943867  
			
			这样就可以打开硬解码了，当然在编译ffmpeg的时候要支持硬解码，请参考ffmpeg 编译android so库文件 后面跟新的部分。 
			参考博文：：
			ffmpeg 编译android so库文件：：
			https://blog.csdn.net/zhangpengzp/article/details/82289224 
6. 
	6.2 
		解码之前可能读取不到宽高。所以在解码之后调用。
		
		视频重采样后，sws_scale = 0，啥原因？
		是这个吗？char *rgb = new char[1920*1080*4];当前测试视频：1280x720
		
		使用课件中的1080.mp4正常视频重采样，当随便更换一个mp4视频，重采样返回h=0;
		
		博文：
		SwsContext、sws_scale缩放失败，或者缩放后视频乱码?
		https://blog.csdn.net/zhangpengzp/article/details/89278513 
		【该博主，图像研究比较深入】值得参考学习。
			解决方案：

			1、可以将宽度设置为linesize[0]，这样就不会乱码了，但存在意外，视频1920*1080的时候太大，也无法显示。

			2、缩放是根据宽度，android平台最好是64倍数，高度也是有相应的限制。为了播放器的 兼容性，最好使用opengl来渲染、或者利用 高效率libyuv 库来进行格式转换显示，libyuv高效转化git地址https://github.com/hurtnotbad/FFmpegDemo。

			具体的 解决方法请参考博客：FFMpeg opengl显示解码avframe 
				【https://blog.csdn.net/zhangpengzp/article/details/89531572】
8. EGL和OpenGLES Shader显示YUV视频
	8.1 
		relate1:视频学习笔记：Android OpenGL渲染YUV420P图像
			https://blog.csdn.net/lidec/article/details/73732369 
			
			Include GLES to CMakeLists in Android NDK
			https://stackoverflow.com/questions/42103942/include-gles-to-cmakelists-in-android-ndk 
		relate2:gitee中demo
			search keyword : opengles yuv
		relate3:ffmpeg opengles yuv
			https://github.com/susirsusir/ffmpeg_yuv
		q1:eglCreateContext failed! 
			
			context 创建关联的上下文
			const EGLint ctxAttr[] = {
					EGL_CONTEXT_CLIENT_VERSION,1,EGL_NONE
			};
			EGLContext context = eglCreateContext(display,config,EGL_NO_CONTEXT,ctxAttr);
			版本号使用1可以，可能不同平台兼容适配性问题。
			
			但是还有问题：
			glCreateShader 35633 failed!  //35633  => GL_VERTEX_SHADER
		q2:以上加载正常，但还是未能显示。
			android 使用openGL_ES 真机上无法显示纹理是什么原因？
			https://bbs.csdn.net/topics/390369747  
			gpu相关设置需要打开？
			
			android jni调用opengl es fbo部分机型没有画面问题 
			https://blog.csdn.net/u010302327/article/details/80339078 
			
			参考博客：
			MP4视频播放问题（有声音无图像）分析与解决——FFmpeg视频处理教程
			https://blog.csdn.net/qq_37868757/article/details/112851978
			启发是编码格式问题。
			原视频1080.mp4::Stream #0:0(eng): Video: h264 (High) (avc1 / 0x31637661), yuv420p, 1920x1080
			paiDuiGe.mp4::  Stream #0:0(eng): Video: mpeg4 (Simple Profile) (mp4v / 0x7634706D), yuv420p ,1280x720
			
		q3 图像显示不出来
			设置的宽高要和实际视频保持一致，否则显示花屏图像。继续转到【q5】
		q4 用android的native surface来显示视频画面无效
			https://bbs.csdn.net/topics/380267218?list=25609635 
		q5 经过以上q{n}处理，在android5.1的手机上能正常显示，但在android9的手机上就无法显示图像。
			在android9上初步查看，当前所加的日志都正常打印。是否还有相关日志没加呢？窗口相关的日志没有加。
			q5.1 是否和编译脚本中--sysroot所指定的android平台版本有关。android-21
9 
10 video project chapter2
	